<?xml version="1.0" encoding="UTF-8"?>
<svg id="Calque_1" data-name="Calque 1" xmlns="http://www.w3.org/2000/svg" viewBox="0 0 512.37 181.77">
  <defs>
    <style>
      .cls-1 {
        fill: #bf1c2d;
      }

      .cls-1, .cls-2, .cls-3 {
        stroke-width: 0px;
      }

      .cls-2 {
        fill: #576d79;
      }

      .cls-3 {
        fill: #526b78;
      }
    </style>
  </defs>
  <path id="path108" class="cls-3" d="M164.72,148.29c0,.2-.03.38-.09.56-.06.18-.14.33-.25.47-.11.13-.25.24-.42.32-.17.08-.36.12-.58.12-.08,0-.16,0-.24-.02-.08-.02-.15-.03-.21-.05v-.14c.24-.04.43-.15.58-.33.15-.18.22-.39.22-.63,0-.04,0-.09-.01-.15,0-.06-.02-.11-.04-.15h-.79v-1.83h1.83v1.83Z"/>
  <path id="path156" class="cls-3" d="M253.35,148.29c0,.2-.03.38-.09.56-.06.18-.14.33-.25.47-.11.13-.25.24-.42.32-.17.08-.36.12-.58.12-.08,0-.16,0-.24-.02-.08-.02-.15-.03-.22-.05v-.14c.24-.04.43-.15.58-.33.15-.18.22-.39.22-.63,0-.04,0-.09-.01-.15,0-.06-.02-.11-.04-.15h-.79v-1.83h1.83v1.83Z"/>
  <g>
    <path id="path20" class="cls-2" d="M65.27,72.74c-1.59-5.14-4.41-9.27-8.47-12.4-4.06-3.13-8.66-4.69-13.8-4.69s-9.57,1.56-13.59,4.69c-4.02,3.13-6.82,7.26-8.4,12.4h44.26ZM86.42,80.59c0,1.31-.07,2.66-.21,4.06-.14,1.4-.3,2.85-.49,4.34H21.01c.75,2.34,1.8,4.55,3.15,6.65,1.35,2.1,3.01,3.92,4.97,5.46,1.96,1.54,4.18,2.75,6.65,3.64,2.47.89,5.2,1.33,8.19,1.33,3.64,0,7.28-.63,10.92-1.89,3.64-1.26,6.68-2.96,9.11-5.11l12.75,12.75c-5.6,4.2-11.09,7.17-16.46,8.89-5.37,1.73-11.04,2.59-17.02,2.59s-11.74-1.12-17.02-3.36c-5.28-2.24-9.85-5.27-13.73-9.1-3.88-3.83-6.93-8.33-9.17-13.52-2.24-5.18-3.36-10.72-3.36-16.6s1.12-11.41,3.36-16.6c2.24-5.18,5.32-9.69,9.24-13.52,3.92-3.83,8.5-6.86,13.73-9.1,5.23-2.24,10.83-3.36,16.81-3.36s11.16,1.05,16.39,3.15c5.23,2.1,9.85,5.02,13.87,8.75,4.01,3.74,7.19,8.19,9.52,13.38,2.33,5.18,3.5,10.9,3.5,17.16"/>
    <path id="path24" class="cls-2" d="M172.7,121.21h-20.17v-48.32c0-2.89-.45-5.44-1.34-7.63-.89-2.19-2.08-4.01-3.59-5.46-1.5-1.45-3.21-2.52-5.14-3.22-1.92-.7-3.91-1.05-5.98-1.05-3.09,0-6.14.54-9.14,1.61-3,1.07-5.72,2.78-8.16,5.11v58.97h-20.17V40.25h20.17l.14,6.02c1.21-1.21,2.71-2.33,4.48-3.36,1.77-1.03,3.62-1.89,5.53-2.59,1.91-.7,3.87-1.24,5.88-1.61,2.01-.37,3.94-.56,5.81-.56,4.11,0,8.05.65,11.84,1.96,3.78,1.31,7.14,3.32,10.08,6.02,2.94,2.71,5.3,6.21,7.07,10.51,1.77,4.3,2.66,9.38,2.66,15.27v49.3Z"/>
    <path id="path26" class="cls-2" d="M208.84,121.2h-20.45V40.1h20.45v81.1Z"/>
    <path id="path30" class="cls-2" d="M276.21,69.66c0-2.05-.39-3.97-1.18-5.74-.79-1.77-1.85-3.34-3.19-4.69-1.34-1.35-2.92-2.43-4.72-3.22-1.8-.79-3.72-1.19-5.76-1.19s-3.93.4-5.69,1.19c-1.76.79-3.31,1.87-4.65,3.22-1.34,1.35-2.41,2.92-3.19,4.69-.79,1.78-1.18,3.69-1.18,5.74s.39,3.99,1.18,5.81c.79,1.82,1.85,3.41,3.19,4.76,1.34,1.35,2.89,2.43,4.65,3.22,1.76.8,3.65,1.19,5.69,1.19s3.95-.4,5.76-1.19c1.8-.79,3.38-1.87,4.72-3.22,1.34-1.35,2.4-2.94,3.19-4.76.79-1.82,1.18-3.76,1.18-5.81M280,135.07c0-3.27-1.65-5.65-4.95-7.14-3.3-1.49-7.56-2.24-12.77-2.24-5.58,0-9.98.79-13.19,2.38-3.21,1.59-4.81,3.92-4.81,7s1.67,5.55,5.02,7.14c3.35,1.59,7.67,2.38,12.98,2.38s9.69-.77,12.9-2.31c3.21-1.54,4.82-3.95,4.82-7.21M301.71,56.21h-8.55c2.15,4.2,3.22,8.68,3.22,13.45,0,3.64-.68,7.17-2.03,10.58-1.36,3.41-3.29,6.51-5.81,9.31-2.52,2.8-5.58,5.18-9.18,7.14-3.59,1.96-7.63,3.27-12.12,3.92-3.08.47-5.39,1.19-6.93,2.17-1.54.98-2.31,1.96-2.31,2.94s.77,1.89,2.31,2.73c1.54.84,3.85,1.4,6.93,1.68,10.46.93,18.56,3.55,24.3,7.84,5.74,4.29,8.61,9.99,8.61,17.09,0,3.64-.88,7-2.65,10.08-1.77,3.08-4.3,5.74-7.61,7.99-3.3,2.24-7.28,3.97-11.93,5.18-4.65,1.21-9.86,1.82-15.63,1.82s-11.14-.61-15.84-1.82c-4.7-1.21-8.72-2.92-12.07-5.11-3.35-2.19-5.91-4.83-7.68-7.91-1.77-3.08-2.65-6.49-2.65-10.22,0-5.6,1.6-10.3,4.8-14.08,3.2-3.78,8.41-6.6,15.64-8.47-2.24-.84-3.85-1.98-4.83-3.43-.98-1.45-1.42-2.92-1.33-4.41.09-1.49.72-2.92,1.89-4.27,1.17-1.35,2.83-2.4,4.98-3.15-2.45-1.12-4.77-2.57-6.98-4.34-2.21-1.77-4.21-3.83-6-6.16-1.79-2.33-3.2-4.95-4.23-7.84-1.04-2.89-1.55-5.97-1.55-9.24,0-4.39.93-8.5,2.8-12.33,1.87-3.83,4.39-7.16,7.56-10.01,3.17-2.85,6.86-5.09,11.07-6.72,4.2-1.63,8.64-2.45,13.31-2.45s8.83.7,12.75,2.1h27.73v15.97Z"/>
    <path id="path34" class="cls-2" d="M431.41,121.21h-20.17v-48.32c0-5.7-1.38-10.01-4.13-12.96-2.75-2.94-6.14-4.41-10.15-4.41-3.08,0-6,.49-8.76,1.47-2.75.98-5.44,2.59-8.05,4.83.84,3.27,1.26,6.96,1.26,11.07v48.32h-20.17v-48.32c0-5.7-1.38-10.01-4.13-12.96-2.76-2.94-6.09-4.41-10.01-4.41-3.08,0-5.79.54-8.12,1.61-2.34,1.07-4.76,2.78-7.28,5.11v58.97h-20.17V40.25h20.17l.02,6.02c2.52-2.43,5.49-4.39,8.9-5.88,3.41-1.49,6.89-2.24,10.45-2.24,3.93,0,7.88.89,11.85,2.66,3.97,1.78,7.46,4.34,10.45,7.7,4.21-3.73,8.46-6.4,12.76-7.98,4.3-1.59,9.02-2.38,14.16-2.38,4.21,0,8.21.63,11.99,1.89,3.79,1.26,7.08,3.27,9.89,6.02,2.8,2.76,5.05,6.26,6.73,10.51,1.68,4.25,2.53,9.36,2.53,15.34v49.3Z"/>
    <path id="path38" class="cls-2" d="M492.2,101.03v-14.99h-9.24c-2.8,0-5.44.19-7.91.56-2.47.37-4.62,1.01-6.44,1.89-1.82.89-3.27,2.03-4.34,3.43-1.07,1.4-1.61,3.08-1.61,5.04,0,2.8,1.1,5.09,3.29,6.86,2.19,1.78,5.02,2.66,8.47,2.66,2.99,0,5.95-.47,8.89-1.4,2.94-.93,5.9-2.29,8.89-4.06M512.37,121.2h-20.17v-4.34c-3.55,2.43-7.31,4.11-11.28,5.04-3.97.93-8.05,1.4-12.26,1.4-3.92,0-7.47-.58-10.64-1.75-3.18-1.17-5.93-2.85-8.26-5.04-2.34-2.19-4.13-4.78-5.39-7.77-1.26-2.99-1.89-6.3-1.89-9.95,0-4.57,1-8.57,3.01-11.98,2.01-3.41,4.74-6.25,8.19-8.54,3.45-2.29,7.49-3.99,12.12-5.11,4.62-1.12,9.6-1.68,14.92-1.68h11.63c0-4.76-1.54-8.54-4.62-11.35-3.08-2.8-7.52-4.2-13.31-4.2-2.8,0-5.7.51-8.68,1.54-2.99,1.03-5.98,2.9-8.96,5.6l-11.91-12.05c4.29-4.11,9.27-7.28,14.92-9.52,5.65-2.24,11.46-3.36,17.44-3.36,5.6,0,10.59.89,14.97,2.66,4.37,1.78,7.9,4.06,10.59,6.86,3.52,3.55,6,7.52,7.44,11.91,1.44,4.39,2.15,9.99,2.15,16.81v44.82Z"/>
    <path id="path42" class="cls-1" d="M213.34,14.36c0,7.93-6.43,14.36-14.36,14.36s-14.36-6.43-14.36-14.36,6.43-14.36,14.36-14.36,14.36,6.43,14.36,14.36"/>
    <path id="path46" class="cls-1" d="M9.8,178.08H2.79v-10.6h7.01v1.7h-4.99v2.54h4.92v1.66h-4.92v2.92h4.99v1.79Z"/>
    <path id="path50" class="cls-3" d="M18.04,176.93c-.39.44-.86.78-1.41,1.01-.55.23-1.12.34-1.73.34-.56,0-1.08-.1-1.58-.31-.5-.2-.93-.48-1.29-.84-.36-.36-.65-.78-.86-1.28-.21-.5-.32-1.03-.32-1.61s.1-1.1.32-1.59c.21-.49.5-.92.86-1.28.36-.36.79-.65,1.28-.86.5-.21,1.03-.31,1.59-.31s1.14.11,1.67.32c.53.21.98.54,1.37.97l-1.29,1.31c-.2-.26-.43-.47-.71-.64-.28-.17-.62-.25-1.02-.25-.29,0-.57.06-.83.19-.26.12-.49.29-.69.5-.2.21-.36.45-.47.74-.12.28-.17.58-.17.9s.06.62.17.9c.11.28.27.53.46.74.19.21.43.37.69.5.27.12.54.19.84.19.38,0,.73-.09,1.03-.27.31-.18.56-.41.74-.7l1.33,1.33Z"/>
    <path id="path54" class="cls-3" d="M25,174.25c0-.33-.06-.63-.17-.92-.11-.28-.27-.53-.47-.74-.2-.21-.43-.38-.69-.5-.26-.12-.55-.18-.85-.18s-.58.06-.85.18c-.26.12-.5.28-.69.5-.2.21-.36.46-.47.74-.11.28-.17.59-.17.92s.06.63.17.92c.12.28.27.53.47.74.2.21.43.38.69.5.27.12.55.18.85.18s.58-.06.85-.18c.26-.12.5-.29.69-.5.2-.21.36-.46.47-.74.12-.28.17-.59.17-.92M26.91,174.25c0,.58-.11,1.11-.32,1.6-.21.49-.51.92-.88,1.27-.37.36-.81.64-1.31.85-.5.21-1.03.31-1.6.31s-1.1-.1-1.59-.31c-.5-.21-.93-.49-1.3-.86-.37-.36-.66-.79-.88-1.28-.21-.49-.32-1.02-.32-1.59s.11-1.08.32-1.57.51-.92.88-1.29c.37-.37.8-.65,1.3-.86.5-.21,1.02-.31,1.58-.31s1.1.1,1.6.31c.5.21.94.49,1.31.85.37.36.66.79.88,1.28.21.5.32,1.03.32,1.59"/>
    <path id="path58" class="cls-3" d="M31.34,178.04c-.15.07-.32.13-.51.17-.19.04-.39.07-.59.07-.28,0-.56-.04-.82-.11-.26-.07-.49-.2-.68-.36-.19-.17-.35-.39-.46-.66-.12-.27-.17-.59-.17-.97v-9.11h1.95v8.77c0,.32.06.54.19.66.13.12.28.18.46.18.22,0,.43-.07.64-.2v1.57Z"/>
    <path id="path62" class="cls-3" d="M38.19,173.49c-.15-.49-.42-.88-.8-1.17-.39-.3-.82-.44-1.31-.44s-.91.15-1.29.44c-.38.3-.65.69-.8,1.17h4.19ZM40.19,174.23c0,.12,0,.25-.02.39s-.03.27-.05.41h-6.13c.07.22.17.43.3.63.13.2.29.37.47.52.19.15.4.26.63.35.23.08.49.13.78.13.35,0,.69-.06,1.04-.18.35-.12.63-.28.86-.48l1.21,1.21c-.53.4-1.05.68-1.56.84-.51.16-1.05.24-1.61.24s-1.11-.11-1.61-.32c-.5-.21-.93-.5-1.3-.86-.37-.36-.66-.79-.87-1.28-.21-.49-.32-1.02-.32-1.57s.11-1.08.32-1.57c.21-.49.51-.92.88-1.28.37-.36.81-.65,1.3-.86.5-.21,1.03-.32,1.59-.32s1.06.1,1.55.3c.5.2.93.48,1.31.83.38.35.68.78.9,1.27.22.49.33,1.03.33,1.63"/>
    <path id="path66" class="cls-3" d="M50.76,176.03v-3.69c-.09-.06-.19-.12-.31-.18-.12-.06-.24-.11-.36-.15-.13-.04-.25-.07-.37-.09-.13-.02-.24-.03-.33-.03-.32,0-.61.06-.87.17-.26.11-.49.27-.69.48-.2.21-.35.46-.45.75-.11.29-.16.61-.16.97s.05.66.16.95c.11.29.25.54.44.74.19.21.41.37.67.48.26.12.55.17.86.17.51,0,.98-.19,1.41-.57M52.68,178.08h-1.95v-.4c-.25.21-.52.35-.81.44-.29.09-.6.14-.93.14-.54,0-1.03-.11-1.49-.33-.45-.22-.84-.51-1.17-.88-.33-.37-.58-.8-.76-1.28-.18-.49-.27-1-.27-1.54,0-.58.1-1.11.31-1.6.21-.49.48-.92.83-1.28.35-.36.74-.65,1.18-.86.44-.21.9-.31,1.37-.31.33,0,.65.04.96.13.31.09.58.21.8.37v-3.64h1.94v11.02Z"/>
    <path id="path70" class="cls-3" d="M61.07,178.08h-1.91v-.58c-.12.12-.27.23-.43.33-.16.09-.34.17-.52.24-.18.07-.37.12-.56.15-.19.04-.37.05-.54.05-.39,0-.76-.06-1.12-.19-.36-.12-.67-.31-.95-.57-.27-.26-.49-.59-.66-1-.16-.41-.24-.89-.24-1.45v-4.66h1.91v4.57c0,.27.04.52.13.72.08.21.19.38.33.52.14.14.3.24.48.31.18.07.37.1.56.1.62,0,1.16-.21,1.61-.64v-5.57h1.91v7.67Z"/>
    <path id="path74" class="cls-1" d="M75.94,178.08h-2.02l-4.79-7.45v7.45h-2.02v-10.62h2.31l4.5,6.93v-6.93h2.02v10.62Z"/>
    <path id="path78" class="cls-3" d="M84.46,178.08h-1.91v-.58c-.12.12-.27.23-.43.33-.16.09-.34.17-.52.24-.18.07-.37.12-.56.15-.19.04-.37.05-.54.05-.39,0-.76-.06-1.12-.19-.36-.12-.67-.31-.95-.57-.27-.26-.49-.59-.66-1-.16-.41-.24-.89-.24-1.45v-4.66h1.91v4.57c0,.27.04.52.13.72.08.21.19.38.33.52.14.14.3.24.48.31.18.07.37.1.56.1.62,0,1.16-.21,1.61-.64v-5.57h1.91v7.67Z"/>
    <path id="path82" class="cls-3" d="M97.41,178.08h-1.91v-4.58c0-.54-.13-.95-.39-1.23-.26-.28-.58-.42-.96-.42-.29,0-.57.05-.83.14-.26.09-.52.25-.76.46.08.31.12.66.12,1.05v4.58h-1.91v-4.58c0-.54-.13-.95-.39-1.23-.26-.28-.58-.42-.95-.42-.29,0-.55.05-.77.15-.22.1-.45.26-.69.48v5.59h-1.91v-7.67h1.91v.57c.24-.23.52-.42.84-.56.32-.14.65-.21.99-.21.37,0,.75.08,1.12.25.38.17.71.41.99.73.4-.35.8-.61,1.21-.76.41-.15.85-.23,1.34-.23.4,0,.78.06,1.14.18.36.12.67.31.94.57.27.26.48.59.64,1,.16.4.24.89.24,1.45v4.67Z"/>
    <path id="path86" class="cls-3" d="M104.79,166.89l-1.91,2.56h-1.41l1.19-2.56h2.12ZM104.78,173.49c-.15-.49-.42-.88-.8-1.17-.38-.3-.82-.44-1.31-.44s-.91.15-1.29.44c-.38.3-.65.69-.8,1.17h4.19ZM106.78,174.24c0,.12,0,.25-.02.38-.01.13-.03.27-.05.41h-6.13c.07.22.17.43.3.63.13.2.29.37.47.52.19.15.4.26.63.35.24.08.49.13.78.13.35,0,.69-.06,1.03-.18.35-.12.63-.28.86-.48l1.21,1.21c-.53.4-1.05.68-1.56.84-.51.16-1.05.25-1.61.25s-1.11-.11-1.61-.32c-.5-.21-.93-.5-1.3-.86-.37-.36-.66-.79-.87-1.28-.21-.49-.32-1.02-.32-1.57s.11-1.08.32-1.57.5-.92.88-1.28c.37-.36.8-.65,1.3-.86.5-.21,1.03-.32,1.59-.32s1.06.1,1.55.3c.5.2.93.47,1.31.83.38.35.68.78.9,1.27.22.49.33,1.03.33,1.63"/>
    <path id="path90" class="cls-3" d="M113.48,171.21l-1.02,1.62c-.19-.2-.39-.38-.62-.54-.23-.15-.45-.23-.68-.23-.12,0-.26.03-.4.09-.15.06-.28.15-.41.29-.13.13-.24.31-.32.52-.09.22-.13.48-.13.8v4.33h-1.91v-7.67h1.91v.82c.23-.33.48-.58.76-.76.28-.18.59-.27.94-.27s.67.09.99.27c.32.18.63.42.91.72"/>
    <path id="path92" class="cls-3" d="M116.12,178.08h-1.94v-7.68h1.94v7.68ZM116.15,169.07h-1.99v-1.99h1.99v1.99Z"/>
    <path id="path96" class="cls-3" d="M123.07,176.04v-3.68c-.18-.14-.4-.26-.67-.34-.27-.08-.5-.13-.71-.13-.32,0-.61.06-.87.17-.26.11-.49.27-.69.48-.2.21-.35.46-.45.75-.11.29-.16.62-.16.98,0,.34.05.65.16.94.11.29.25.54.44.74.19.21.41.37.67.48.26.12.55.17.86.17.51,0,.98-.19,1.41-.57M124.96,181.42h-1.91v-3.72c-.25.2-.52.35-.82.44-.3.09-.61.14-.94.14-.54,0-1.03-.11-1.49-.32-.45-.22-.84-.51-1.17-.88-.33-.37-.58-.79-.76-1.28-.18-.49-.27-1-.27-1.54,0-.58.1-1.11.31-1.6.21-.49.48-.92.83-1.28.35-.36.74-.65,1.18-.86.44-.21.9-.31,1.37-.31.33,0,.65.04.96.13.31.09.58.21.8.37v-.32h1.91v11.02Z"/>
    <path id="path100" class="cls-3" d="M133.37,178.08h-1.91v-.58c-.12.12-.27.23-.43.33-.16.09-.34.17-.52.24-.18.07-.37.12-.56.15-.19.04-.37.05-.54.05-.39,0-.76-.06-1.12-.19-.36-.12-.67-.31-.95-.57-.27-.26-.49-.59-.66-1-.16-.41-.24-.89-.24-1.45v-4.66h1.91v4.57c0,.27.04.52.13.72.08.21.19.38.33.52.14.14.3.24.48.31.18.07.37.1.56.1.62,0,1.16-.21,1.61-.64v-5.57h1.91v7.67Z"/>
    <path id="path104" class="cls-3" d="M140.88,173.49c-.15-.49-.42-.88-.8-1.17-.39-.3-.82-.44-1.31-.44s-.91.15-1.29.44c-.38.3-.65.69-.8,1.17h4.19ZM142.88,174.23c0,.12,0,.25-.02.39s-.03.27-.05.41h-6.13c.07.22.17.43.3.63.13.2.29.37.47.52.19.15.4.26.63.35.23.08.49.13.78.13.35,0,.69-.06,1.04-.18.35-.12.63-.28.86-.48l1.21,1.21c-.53.4-1.05.68-1.56.84-.51.16-1.05.24-1.61.24s-1.11-.11-1.61-.32c-.5-.21-.93-.5-1.3-.86-.37-.36-.66-.79-.87-1.28-.21-.49-.32-1.02-.32-1.57s.11-1.08.32-1.57c.21-.49.51-.92.88-1.28.37-.36.81-.65,1.3-.86.5-.21,1.03-.32,1.59-.32s1.06.1,1.55.3c.5.2.93.48,1.31.83.38.35.68.78.9,1.27.22.49.33,1.03.33,1.63"/>
    <path id="path110" class="cls-1" d="M153.88,178.08h-2.06v-10.6h2.06v10.6Z"/>
    <path id="path114" class="cls-3" d="M162.59,178.08h-1.91v-4.58c0-.27-.04-.52-.13-.72-.08-.21-.2-.38-.34-.52-.14-.14-.3-.24-.49-.3-.18-.07-.37-.1-.57-.1-.29,0-.58.05-.87.15-.28.1-.54.26-.77.48v5.59h-1.91v-7.67h1.91v.57c.13-.12.27-.22.44-.32.17-.1.34-.18.52-.25.18-.07.37-.12.56-.15.19-.04.37-.05.55-.05.39,0,.76.06,1.12.19.36.12.68.31.96.57.28.26.5.59.67,1,.17.41.25.89.25,1.45v4.67Z"/>
    <path id="path118" class="cls-3" d="M168.34,168.82c-.19-.07-.35-.12-.49-.14-.14-.02-.3-.03-.47-.03-.37,0-.63.08-.79.25-.15.17-.23.47-.23.92v.61h1.21v1.67h-1.21v5.99h-1.91v-5.99h-.93v-1.67h.93v-.58c0-.96.18-1.7.54-2.2.36-.5.99-.76,1.9-.76.51,0,1,.06,1.45.19v1.75Z"/>
    <path id="path122" class="cls-3" d="M174.67,174.25c0-.33-.06-.63-.17-.92-.11-.28-.27-.53-.47-.74-.2-.21-.43-.38-.69-.5-.26-.12-.55-.18-.85-.18s-.58.06-.85.18c-.26.12-.5.28-.69.5-.2.21-.36.46-.47.74-.11.28-.17.59-.17.92s.06.63.17.92c.12.28.27.53.47.74.2.21.43.38.69.5.27.12.55.18.85.18s.58-.06.85-.18c.26-.12.5-.29.69-.5.2-.21.36-.46.47-.74.12-.28.17-.59.17-.92M176.58,174.25c0,.58-.11,1.11-.32,1.6-.21.49-.51.92-.88,1.27-.37.36-.81.64-1.31.85-.5.21-1.03.31-1.6.31s-1.1-.1-1.59-.31c-.5-.21-.93-.49-1.3-.86-.37-.36-.66-.79-.88-1.28-.21-.49-.32-1.02-.32-1.59s.11-1.08.32-1.57.51-.92.88-1.29c.37-.37.8-.65,1.3-.86.5-.21,1.02-.31,1.58-.31s1.1.1,1.6.31c.5.21.94.49,1.31.85.37.36.66.79.88,1.28.21.5.32,1.03.32,1.59"/>
    <path id="path126" class="cls-3" d="M183.28,171.21l-1.02,1.62c-.19-.2-.39-.38-.62-.54-.23-.15-.45-.23-.68-.23-.12,0-.26.03-.4.09-.15.06-.28.15-.41.29-.13.13-.24.31-.32.52-.09.22-.13.48-.13.8v4.33h-1.91v-7.67h1.91v.82c.23-.33.48-.58.76-.76.28-.18.59-.27.94-.27s.67.09.99.27c.32.18.63.42.91.72"/>
    <path id="path130" class="cls-3" d="M195.32,178.08h-1.91v-4.58c0-.54-.13-.95-.39-1.23-.26-.28-.58-.42-.96-.42-.29,0-.57.05-.83.14-.26.09-.52.25-.76.46.08.31.12.66.12,1.05v4.58h-1.91v-4.58c0-.54-.13-.95-.39-1.23-.26-.28-.58-.42-.95-.42-.29,0-.55.05-.77.15-.22.1-.45.26-.69.48v5.59h-1.91v-7.67h1.91v.57c.24-.23.52-.42.84-.56.32-.14.65-.21.99-.21.37,0,.75.08,1.12.25.38.17.71.41.99.73.4-.35.8-.61,1.21-.76.41-.15.85-.23,1.34-.23.4,0,.78.06,1.14.18.36.12.67.31.94.57.27.26.48.59.64,1,.16.4.24.89.24,1.45v4.67Z"/>
    <path id="path134" class="cls-3" d="M201.08,176.17v-1.42h-.88c-.27,0-.52.02-.75.05-.23.04-.44.1-.61.18-.17.09-.31.19-.41.33-.1.13-.15.29-.15.48,0,.27.1.48.31.65.21.17.48.25.8.25.28,0,.56-.04.84-.13.28-.09.56-.22.84-.38M202.99,178.08h-1.91v-.41c-.34.23-.69.39-1.07.48-.38.09-.76.13-1.16.13-.37,0-.71-.06-1.01-.17-.3-.11-.56-.27-.78-.48-.22-.21-.39-.45-.51-.74-.12-.28-.18-.6-.18-.94,0-.43.09-.81.28-1.14.19-.32.45-.59.78-.81.33-.22.71-.38,1.15-.48.44-.11.91-.16,1.41-.16h1.1c0-.45-.15-.81-.44-1.07-.29-.27-.71-.4-1.26-.4-.27,0-.54.05-.82.15-.28.1-.57.28-.85.53l-1.13-1.14c.41-.39.88-.69,1.41-.9.54-.21,1.09-.32,1.65-.32.53,0,1,.08,1.42.25.41.17.75.38,1,.65.33.34.57.71.7,1.13.14.42.2.95.2,1.59v4.25Z"/>
    <path id="path138" class="cls-3" d="M208.74,177.91c-.2.12-.42.22-.68.28-.26.06-.51.09-.77.09-.45,0-.83-.06-1.14-.17-.31-.11-.56-.28-.74-.51-.19-.23-.32-.52-.4-.88-.09-.35-.13-.77-.13-1.25v-3.36h-1.01v-.86c.62-.26,1.12-.64,1.51-1.14.38-.5.65-1.16.79-1.96h.62v2.24h1.94v1.73h-1.94v3.49c0,.19.02.35.07.48.05.13.11.22.19.29s.17.12.27.15c.1.03.21.04.32.04.15,0,.33-.03.54-.08.21-.05.39-.14.54-.27v1.69Z"/>
    <path id="path140" class="cls-3" d="M211.83,178.08h-1.94v-7.68h1.94v7.68ZM211.86,169.07h-1.99v-1.99h1.99v1.99Z"/>
    <path id="path144" class="cls-3" d="M218.77,176.04v-3.68c-.18-.14-.4-.26-.67-.34-.27-.08-.5-.13-.71-.13-.32,0-.61.06-.87.17-.26.11-.49.27-.69.48-.19.21-.35.46-.45.75-.11.29-.16.62-.16.98,0,.34.05.65.16.94.11.29.25.54.44.74.19.21.41.37.67.48.26.12.55.17.86.17.51,0,.98-.19,1.41-.57M220.67,181.42h-1.91v-3.72c-.25.2-.52.35-.82.44-.3.09-.61.14-.94.14-.54,0-1.03-.11-1.49-.32-.45-.22-.84-.51-1.17-.88-.33-.37-.58-.79-.76-1.28-.18-.49-.27-1-.27-1.54,0-.58.1-1.11.31-1.6.21-.49.49-.92.83-1.28.34-.36.74-.65,1.18-.86.44-.21.9-.31,1.37-.31.33,0,.65.04.96.13.31.09.58.21.8.37v-.32h1.91v11.02Z"/>
    <path id="path148" class="cls-3" d="M229.07,178.08h-1.91v-.58c-.12.12-.27.23-.43.33-.16.09-.34.17-.52.24-.18.07-.37.12-.56.15-.19.04-.37.05-.54.05-.39,0-.76-.06-1.12-.19-.36-.12-.68-.31-.95-.57-.27-.26-.49-.59-.66-1-.17-.41-.25-.89-.25-1.45v-4.66h1.91v4.57c0,.27.04.52.13.72.08.21.19.38.33.52.14.14.3.24.48.31.18.07.37.1.56.1.62,0,1.16-.21,1.61-.64v-5.57h1.91v7.67Z"/>
    <path id="path152" class="cls-3" d="M236.59,173.49c-.15-.49-.42-.88-.8-1.17-.39-.3-.82-.44-1.31-.44s-.91.15-1.29.44c-.38.3-.65.69-.8,1.17h4.19ZM238.59,174.23c0,.12,0,.25-.02.39-.01.13-.03.27-.05.41h-6.13c.07.22.17.43.3.63.13.2.28.37.47.52.19.15.39.26.63.35.23.08.49.13.78.13.34,0,.69-.06,1.03-.18.35-.12.63-.28.86-.48l1.21,1.21c-.53.4-1.05.68-1.56.84-.51.16-1.05.24-1.61.24s-1.11-.11-1.61-.32c-.5-.21-.93-.5-1.3-.86-.37-.36-.66-.79-.87-1.28-.21-.49-.32-1.02-.32-1.57s.11-1.08.32-1.57c.21-.49.51-.92.88-1.28.37-.36.8-.65,1.3-.86.5-.21,1.03-.32,1.59-.32s1.06.1,1.55.3c.5.2.93.48,1.31.83.38.35.68.78.9,1.27.22.49.33,1.03.33,1.63"/>
    <path id="path160" class="cls-1" d="M257.3,176.13c-.3.37-.63.69-.98.96-.35.27-.72.49-1.11.67-.39.18-.78.31-1.18.39-.4.08-.8.13-1.2.13-.79,0-1.53-.14-2.22-.42-.69-.28-1.29-.67-1.81-1.17s-.92-1.08-1.22-1.75c-.3-.67-.45-1.4-.45-2.18s.15-1.48.44-2.14c.3-.67.7-1.25,1.22-1.75.52-.49,1.12-.89,1.81-1.17.69-.29,1.43-.43,2.22-.43.91,0,1.74.19,2.49.56.75.37,1.38.87,1.9,1.49l-1.39,1.42c-.4-.54-.84-.93-1.34-1.16-.5-.23-1.05-.35-1.66-.35-.5,0-.98.09-1.42.28-.44.18-.83.44-1.16.76-.33.32-.59.7-.78,1.13-.19.43-.28.89-.28,1.37s.09.96.28,1.39c.19.43.45.81.78,1.14.33.33.72.58,1.16.77.44.19.92.28,1.42.28s.93-.09,1.35-.27c.42-.18.8-.41,1.14-.7v-1.02h-2.18v-1.75h4.16v3.54Z"/>
    <path id="path164" class="cls-3" d="M261.87,178.04c-.15.07-.32.13-.51.17-.19.04-.39.07-.59.07-.28,0-.55-.04-.82-.11-.26-.07-.49-.2-.68-.36-.2-.17-.35-.39-.47-.66-.11-.27-.17-.59-.17-.97v-9.11h1.95v8.77c0,.32.06.54.19.66.13.12.28.18.46.18.22,0,.43-.07.64-.2v1.57Z"/>
    <path id="path168" class="cls-3" d="M268.81,174.25c0-.33-.06-.63-.17-.92-.12-.28-.27-.53-.47-.74-.2-.21-.43-.38-.69-.5-.26-.12-.55-.18-.85-.18s-.58.06-.85.18c-.26.12-.5.28-.69.5-.2.21-.36.46-.47.74-.11.28-.17.59-.17.92s.06.63.17.92.27.53.47.74c.2.21.43.38.69.5.26.12.55.18.85.18s.58-.06.85-.18c.26-.12.5-.29.69-.5.2-.21.36-.46.47-.74.11-.28.17-.59.17-.92M270.72,174.25c0,.58-.11,1.11-.32,1.6-.21.49-.51.92-.88,1.27-.37.36-.81.64-1.31.85-.5.21-1.03.31-1.6.31s-1.1-.1-1.59-.31c-.5-.21-.93-.49-1.3-.86-.37-.36-.66-.79-.88-1.28s-.32-1.02-.32-1.59.11-1.08.32-1.57c.22-.49.51-.92.88-1.29.37-.37.8-.65,1.3-.86.5-.21,1.02-.31,1.58-.31s1.1.1,1.6.31c.5.21.94.49,1.31.85.37.36.66.79.88,1.28.21.5.32,1.03.32,1.59"/>
    <path id="path172" class="cls-3" d="M277.36,174.25c0-.35-.05-.68-.16-.97-.11-.29-.26-.54-.45-.75-.19-.21-.42-.37-.68-.48-.26-.11-.55-.17-.87-.17-.2,0-.44.04-.71.13-.27.08-.49.19-.67.32v3.69c.42.38.89.57,1.41.57.3,0,.58-.06.84-.17.26-.12.49-.28.67-.49.19-.21.33-.46.44-.74.11-.29.16-.6.16-.95M279.3,174.25c0,.54-.09,1.05-.27,1.54-.18.49-.44.91-.77,1.28-.33.37-.72.66-1.17.88-.45.22-.95.33-1.49.33-.34,0-.65-.05-.95-.14-.29-.09-.57-.24-.82-.44v.4h-1.91v-11.02h1.92v3.72c.23-.18.5-.32.8-.43.31-.11.63-.16.96-.16.47,0,.92.1,1.37.31.44.21.84.49,1.18.86.35.36.62.79.83,1.28.21.49.31,1.02.31,1.6"/>
    <path id="path176" class="cls-3" d="M284.8,176.17v-1.42h-.88c-.27,0-.51.02-.75.05-.23.04-.44.1-.61.18-.17.09-.31.19-.41.33-.1.13-.15.29-.15.48,0,.27.1.48.31.65.21.17.48.25.8.25.28,0,.56-.04.84-.13.28-.09.56-.22.84-.38M286.71,178.08h-1.91v-.41c-.34.23-.69.39-1.07.48-.38.09-.76.13-1.16.13-.37,0-.71-.06-1.01-.17-.3-.11-.56-.27-.78-.48-.22-.21-.39-.45-.51-.74-.12-.28-.18-.6-.18-.94,0-.43.09-.81.28-1.14.19-.32.45-.59.78-.81.33-.22.71-.38,1.15-.48.44-.11.91-.16,1.41-.16h1.1c0-.45-.15-.81-.44-1.07-.29-.27-.71-.4-1.26-.4-.27,0-.54.05-.82.15-.28.1-.57.28-.85.53l-1.13-1.14c.41-.39.88-.69,1.41-.9s1.09-.32,1.65-.32c.53,0,1,.08,1.42.25.41.17.75.38,1,.65.33.34.57.71.7,1.13.14.42.2.95.2,1.59v4.25Z"/>
    <path id="path180" class="cls-3" d="M291.43,178.04c-.15.07-.32.13-.51.17-.19.04-.39.07-.59.07-.28,0-.55-.04-.82-.11-.26-.07-.49-.2-.68-.36-.2-.17-.35-.39-.47-.66-.11-.27-.17-.59-.17-.97v-9.11h1.95v8.77c0,.32.06.54.19.66.13.12.28.18.46.18.22,0,.43-.07.64-.2v1.57Z"/>
    <path id="path184" class="cls-3" d="M301.72,176.03v-3.69c-.09-.06-.19-.12-.31-.18-.12-.06-.24-.11-.36-.15s-.25-.07-.37-.09c-.12-.02-.24-.03-.33-.03-.32,0-.61.06-.87.17-.26.11-.49.27-.69.48-.19.21-.35.46-.45.75-.11.29-.16.61-.16.97s.05.66.16.95c.11.29.25.54.44.74.19.21.41.37.67.48.26.12.55.17.86.17.51,0,.98-.19,1.41-.57M303.65,178.08h-1.95v-.4c-.25.21-.52.35-.81.44-.29.09-.6.14-.93.14-.54,0-1.03-.11-1.49-.33-.45-.22-.84-.51-1.17-.88-.33-.37-.58-.8-.76-1.28-.18-.49-.27-1-.27-1.54,0-.58.1-1.11.31-1.6.21-.49.49-.92.83-1.28.34-.36.74-.65,1.18-.86.44-.21.9-.31,1.37-.31.33,0,.65.04.96.13.31.09.58.21.8.37v-3.64h1.94v11.02Z"/>
    <path id="path188" class="cls-3" d="M309.56,176.17v-1.42h-.88c-.27,0-.51.02-.75.05-.23.04-.44.1-.61.18-.17.09-.31.19-.41.33-.1.13-.15.29-.15.48,0,.27.1.48.31.65.21.17.48.25.8.25.28,0,.56-.04.84-.13.28-.09.56-.22.84-.38M311.47,178.08h-1.91v-.41c-.34.23-.69.39-1.07.48-.38.09-.76.13-1.16.13-.37,0-.71-.06-1.01-.17-.3-.11-.56-.27-.78-.48-.22-.21-.39-.45-.51-.74-.12-.28-.18-.6-.18-.94,0-.43.09-.81.28-1.14.19-.32.45-.59.78-.81.33-.22.71-.38,1.15-.48.44-.11.91-.16,1.41-.16h1.1c0-.45-.15-.81-.44-1.07-.29-.27-.71-.4-1.26-.4-.27,0-.54.05-.82.15-.28.1-.57.28-.85.53l-1.13-1.14c.41-.39.88-.69,1.41-.9s1.09-.32,1.65-.32c.53,0,1,.08,1.42.25.41.17.75.38,1,.65.33.34.57.71.7,1.13.14.42.2.95.2,1.59v4.25Z"/>
    <path id="path192" class="cls-3" d="M317.21,177.91c-.19.12-.42.22-.68.28-.26.06-.51.09-.77.09-.45,0-.83-.06-1.14-.17-.31-.11-.56-.28-.74-.51-.19-.23-.32-.52-.4-.88-.08-.35-.13-.77-.13-1.25v-3.36h-1.01v-.86c.62-.26,1.12-.64,1.51-1.14.39-.5.65-1.16.79-1.96h.62v2.24h1.94v1.73h-1.94v3.49c0,.19.02.35.07.48.05.13.11.22.19.29s.17.12.27.15c.1.03.21.04.33.04.15,0,.33-.03.54-.08.21-.05.39-.14.54-.27v1.69Z"/>
    <path id="path196" class="cls-3" d="M322.66,176.17v-1.42h-.88c-.27,0-.51.02-.75.05-.23.04-.44.1-.61.18-.17.09-.31.19-.41.33-.1.13-.15.29-.15.48,0,.27.1.48.31.65.21.17.48.25.8.25.28,0,.56-.04.84-.13.28-.09.56-.22.84-.38M324.57,178.08h-1.91v-.41c-.34.23-.69.39-1.07.48-.38.09-.76.13-1.16.13-.37,0-.71-.06-1.01-.17-.3-.11-.56-.27-.78-.48-.22-.21-.39-.45-.51-.74-.12-.28-.18-.6-.18-.94,0-.43.09-.81.28-1.14.19-.32.45-.59.78-.81.33-.22.71-.38,1.15-.48.44-.11.91-.16,1.41-.16h1.1c0-.45-.15-.81-.44-1.07-.29-.27-.71-.4-1.26-.4-.27,0-.54.05-.82.15-.28.1-.57.28-.85.53l-1.13-1.14c.41-.39.88-.69,1.41-.9s1.09-.32,1.65-.32c.53,0,1,.08,1.42.25.41.17.75.38,1,.65.33.34.57.71.7,1.13.14.42.2.95.2,1.59v4.25Z"/>
    <path id="path200" class="cls-3" d="M336.14,173.49c-.15-.49-.42-.88-.8-1.17-.39-.3-.82-.44-1.31-.44s-.91.15-1.29.44c-.38.3-.65.69-.8,1.17h4.19ZM338.14,174.23c0,.12,0,.25-.02.39-.01.13-.03.27-.05.41h-6.13c.07.22.17.43.3.63.13.2.28.37.47.52.19.15.39.26.63.35.23.08.49.13.78.13.34,0,.69-.06,1.03-.18.35-.12.63-.28.86-.48l1.21,1.21c-.53.4-1.05.68-1.56.84-.51.16-1.05.24-1.61.24s-1.11-.11-1.61-.32c-.5-.21-.93-.5-1.3-.86-.37-.36-.66-.79-.87-1.28-.21-.49-.32-1.02-.32-1.57s.11-1.08.32-1.57c.21-.49.51-.92.88-1.28.37-.36.8-.65,1.3-.86.5-.21,1.03-.32,1.59-.32s1.06.1,1.55.3c.5.2.93.48,1.31.83.38.35.68.78.9,1.27.22.49.33,1.03.33,1.63"/>
    <path id="path204" class="cls-3" d="M343.61,177.91c-.19.12-.42.22-.68.28-.26.06-.51.09-.77.09-.45,0-.83-.06-1.14-.17-.31-.11-.56-.28-.74-.51-.19-.23-.32-.52-.4-.88-.08-.35-.13-.77-.13-1.25v-3.36h-1.01v-.86c.62-.26,1.12-.64,1.51-1.14.39-.5.65-1.16.79-1.96h.62v2.24h1.94v1.73h-1.94v3.49c0,.19.02.35.07.48.05.13.11.22.19.29s.17.12.27.15c.1.03.21.04.33.04.15,0,.33-.03.54-.08.21-.05.39-.14.54-.27v1.69Z"/>
    <path id="path208" class="cls-1" d="M359.78,178.08h-2.02v-7.09l-3.35,5.64-3.21-5.69v7.14h-2.02v-10.62h2.32l2.95,5.27,3.08-5.27h2.24v10.62Z"/>
    <path id="path212" class="cls-3" d="M365.82,176.17v-1.42h-.88c-.27,0-.51.02-.75.05-.23.04-.44.1-.61.18-.17.09-.31.19-.41.33-.1.13-.15.29-.15.48,0,.27.1.48.31.65.21.17.48.25.8.25.28,0,.56-.04.84-.13.28-.09.56-.22.84-.38M367.73,178.08h-1.91v-.41c-.34.23-.69.39-1.07.48-.38.09-.76.13-1.16.13-.37,0-.71-.06-1.01-.17-.3-.11-.56-.27-.78-.48-.22-.21-.39-.45-.51-.74-.12-.28-.18-.6-.18-.94,0-.43.09-.81.28-1.14.19-.32.45-.59.78-.81.33-.22.71-.38,1.15-.48.44-.11.91-.16,1.41-.16h1.1c0-.45-.15-.81-.44-1.07-.29-.27-.71-.4-1.26-.4-.27,0-.54.05-.82.15-.28.1-.57.28-.85.53l-1.13-1.14c.41-.39.88-.69,1.41-.9s1.09-.32,1.65-.32c.53,0,1,.08,1.42.25.41.17.75.38,1,.65.33.34.57.71.7,1.13.14.42.2.95.2,1.59v4.25Z"/>
    <path id="path216" class="cls-3" d="M376.18,178.08h-1.91v-4.58c0-.27-.04-.52-.13-.72-.08-.21-.2-.38-.34-.52-.14-.14-.3-.24-.49-.3-.18-.07-.37-.1-.57-.1-.29,0-.58.05-.87.15-.28.1-.54.26-.77.48v5.59h-1.91v-7.67h1.91v.57c.13-.12.27-.22.44-.32.17-.1.34-.18.52-.25.18-.07.37-.12.56-.15.19-.04.37-.05.55-.05.39,0,.76.06,1.12.19.36.12.68.31.95.57.28.26.5.59.67,1,.17.41.25.89.25,1.45v4.67Z"/>
    <path id="path220" class="cls-3" d="M381.95,176.17v-1.42h-.88c-.27,0-.51.02-.75.05-.23.04-.44.1-.61.18-.17.09-.31.19-.41.33-.1.13-.15.29-.15.48,0,.27.1.48.31.65.21.17.48.25.8.25.28,0,.56-.04.84-.13.28-.09.56-.22.84-.38M383.87,178.08h-1.91v-.41c-.34.23-.69.39-1.07.48-.38.09-.76.13-1.16.13-.37,0-.71-.06-1.01-.17-.3-.11-.56-.27-.78-.48-.22-.21-.39-.45-.51-.74-.12-.28-.18-.6-.18-.94,0-.43.09-.81.28-1.14.19-.32.45-.59.78-.81.33-.22.71-.38,1.15-.48.44-.11.91-.16,1.41-.16h1.1c0-.45-.15-.81-.44-1.07-.29-.27-.71-.4-1.26-.4-.27,0-.54.05-.82.15-.28.1-.57.28-.85.53l-1.13-1.14c.41-.39.88-.69,1.41-.9s1.09-.32,1.65-.32c.53,0,1,.08,1.42.25.41.17.75.38,1,.65.33.34.57.71.7,1.13.14.42.2.95.2,1.59v4.25Z"/>
    <path id="path224" class="cls-3" d="M389.97,173.2c0-.19-.04-.38-.11-.54-.07-.17-.17-.32-.3-.44-.13-.13-.28-.23-.45-.31s-.35-.11-.55-.11-.37.04-.54.11c-.17.08-.31.18-.44.31-.13.13-.23.28-.3.44-.08.17-.11.35-.11.54s.04.38.11.55c.07.17.17.32.3.45.13.13.27.23.44.31.17.07.35.11.54.11s.38-.04.55-.11.32-.18.45-.31c.13-.13.23-.28.3-.45.08-.17.11-.36.11-.55M390.33,179.4c0-.31-.16-.54-.47-.68-.31-.14-.72-.21-1.21-.21-.53,0-.95.08-1.25.23-.3.15-.46.37-.46.66s.16.53.48.68c.32.15.73.23,1.23.23s.92-.07,1.22-.22c.3-.15.46-.37.46-.68M392.39,171.93h-.81c.21.4.31.82.31,1.27,0,.35-.06.68-.19,1-.13.32-.31.62-.55.88-.24.27-.53.49-.87.68-.34.19-.72.31-1.15.37-.29.04-.51.11-.66.21s-.22.19-.22.28.07.18.22.26c.15.08.36.13.66.16.99.09,1.76.34,2.3.74.54.41.82.95.82,1.62,0,.35-.08.66-.25.96-.17.29-.41.54-.72.76-.31.21-.69.38-1.13.49-.44.12-.93.17-1.48.17s-1.06-.06-1.5-.17c-.45-.11-.83-.28-1.14-.48-.32-.21-.56-.46-.73-.75-.17-.29-.25-.62-.25-.97,0-.53.15-.98.45-1.33.3-.36.8-.63,1.48-.8-.21-.08-.37-.19-.46-.32s-.13-.28-.13-.42c0-.14.07-.28.18-.4.11-.13.27-.23.47-.3-.23-.11-.45-.24-.66-.41-.21-.17-.4-.36-.57-.58-.17-.22-.3-.47-.4-.74-.1-.27-.15-.57-.15-.88,0-.42.09-.8.27-1.17.18-.36.42-.68.72-.95.3-.27.65-.48,1.05-.64.4-.15.82-.23,1.26-.23s.84.07,1.21.2h2.63v1.51Z"/>
    <path id="path228" class="cls-3" d="M399.23,173.49c-.15-.49-.42-.88-.8-1.17-.39-.3-.82-.44-1.31-.44s-.91.15-1.29.44c-.38.3-.65.69-.8,1.17h4.19ZM401.24,174.23c0,.12,0,.25-.02.39-.01.13-.03.27-.05.41h-6.13c.07.22.17.43.3.63.13.2.28.37.47.52.19.15.39.26.63.35.23.08.49.13.78.13.34,0,.69-.06,1.03-.18.35-.12.63-.28.86-.48l1.21,1.21c-.53.4-1.05.68-1.56.84-.51.16-1.05.24-1.61.24s-1.11-.11-1.61-.32c-.5-.21-.93-.5-1.3-.86-.37-.36-.66-.79-.87-1.28-.21-.49-.32-1.02-.32-1.57s.11-1.08.32-1.57c.21-.49.51-.92.88-1.28.37-.36.8-.65,1.3-.86.5-.21,1.03-.32,1.59-.32s1.06.1,1.55.3c.5.2.93.48,1.31.83.38.35.68.78.9,1.27.22.49.33,1.03.33,1.63"/>
    <path id="path232" class="cls-3" d="M413.79,178.08h-1.91v-4.58c0-.54-.13-.95-.39-1.23-.26-.28-.58-.42-.96-.42-.29,0-.57.05-.83.14-.26.09-.52.25-.76.46.08.31.12.66.12,1.05v4.58h-1.91v-4.58c0-.54-.13-.95-.39-1.23-.26-.28-.58-.42-.95-.42-.29,0-.55.05-.77.15-.22.1-.45.26-.69.48v5.59h-1.91v-7.67h1.91v.57c.24-.23.52-.42.85-.56.32-.14.65-.21.99-.21.37,0,.75.08,1.12.25.38.17.71.41.99.73.4-.35.8-.61,1.21-.76.41-.15.85-.23,1.34-.23.4,0,.78.06,1.14.18.36.12.67.31.94.57.27.26.48.59.64,1,.16.4.24.89.24,1.45v4.67Z"/>
    <path id="path236" class="cls-3" d="M421.16,173.49c-.15-.49-.42-.88-.8-1.17-.39-.3-.82-.44-1.31-.44s-.91.15-1.29.44c-.38.3-.65.69-.8,1.17h4.19ZM423.16,174.23c0,.12,0,.25-.02.39-.01.13-.03.27-.05.41h-6.13c.07.22.17.43.3.63.13.2.28.37.47.52.19.15.39.26.63.35.23.08.49.13.78.13.34,0,.69-.06,1.03-.18.35-.12.63-.28.86-.48l1.21,1.21c-.53.4-1.05.68-1.56.84-.51.16-1.05.24-1.61.24s-1.11-.11-1.61-.32c-.5-.21-.93-.5-1.3-.86-.37-.36-.66-.79-.87-1.28-.21-.49-.32-1.02-.32-1.57s.11-1.08.32-1.57c.21-.49.51-.92.88-1.28.37-.36.8-.65,1.3-.86.5-.21,1.03-.32,1.59-.32s1.06.1,1.55.3c.5.2.93.48,1.31.83.38.35.68.78.9,1.27.22.49.33,1.03.33,1.63"/>
    <path id="path240" class="cls-3" d="M431.34,178.08h-1.91v-4.58c0-.27-.04-.52-.13-.72-.08-.21-.2-.38-.34-.52-.14-.14-.3-.24-.49-.3-.18-.07-.37-.1-.57-.1-.29,0-.58.05-.87.15-.28.1-.54.26-.77.48v5.59h-1.91v-7.67h1.91v.57c.13-.12.27-.22.44-.32.17-.1.34-.18.52-.25.18-.07.37-.12.56-.15.19-.04.37-.05.55-.05.39,0,.76.06,1.12.19.36.12.68.31.95.57.28.26.5.59.67,1,.17.41.25.89.25,1.45v4.67Z"/>
    <path id="path244" class="cls-3" d="M437.07,177.91c-.19.12-.42.22-.68.28-.26.06-.51.09-.77.09-.45,0-.83-.06-1.14-.17-.31-.11-.56-.28-.74-.51-.19-.23-.32-.52-.4-.88-.08-.35-.13-.77-.13-1.25v-3.36h-1.01v-.86c.62-.26,1.12-.64,1.51-1.14.39-.5.65-1.16.79-1.96h.62v2.24h1.94v1.73h-1.94v3.49c0,.19.02.35.07.48.05.13.11.22.19.29s.17.12.27.15c.1.03.21.04.33.04.15,0,.33-.03.54-.08.21-.05.39-.14.54-.27v1.69Z"/>
    <path id="path248" class="cls-1" d="M449.31,174.25l-1.77-3.82-1.79,3.82h3.56ZM453.36,178.08h-2.26l-.98-2.12h-5.15l-1,2.12h-2.26l5.02-10.62h1.61l5.02,10.62Z"/>
    <path id="path252" class="cls-3" d="M459.58,174.27c0-.36-.05-.69-.16-.98-.11-.29-.26-.54-.45-.75-.19-.21-.42-.37-.68-.48-.26-.11-.55-.17-.87-.17-.2,0-.44.04-.7.13-.26.08-.48.2-.66.34v3.68c.42.38.88.57,1.4.57.3,0,.58-.06.85-.17.26-.12.49-.28.67-.48.19-.21.33-.46.44-.74.11-.29.16-.6.16-.94M461.54,174.26c0,.54-.09,1.05-.27,1.54-.18.49-.44.91-.77,1.28-.33.37-.72.66-1.17.88-.45.22-.95.32-1.49.32-.34,0-.65-.05-.95-.14-.29-.09-.57-.24-.83-.44v3.72s-1.91,0-1.91,0v-11.02h1.92v.4c.23-.18.5-.32.8-.42s.63-.16.96-.16c.47,0,.92.1,1.37.31.44.21.84.49,1.18.86.35.36.62.79.83,1.28.21.49.31,1.02.31,1.6"/>
    <path id="path256" class="cls-3" d="M468.16,174.27c0-.36-.05-.69-.16-.98-.11-.29-.26-.54-.45-.75-.19-.21-.42-.37-.68-.48-.26-.11-.55-.17-.87-.17-.2,0-.44.04-.7.13-.26.08-.48.2-.66.34v3.68c.42.38.88.57,1.4.57.3,0,.58-.06.85-.17.26-.12.49-.28.67-.48.19-.21.33-.46.44-.74.11-.29.16-.6.16-.94M470.11,174.26c0,.54-.09,1.05-.27,1.54-.18.49-.44.91-.77,1.28-.33.37-.72.66-1.17.88-.45.22-.95.32-1.49.32-.34,0-.65-.05-.95-.14-.29-.09-.57-.24-.83-.44v3.72s-1.91,0-1.91,0v-11.02h1.92v.4c.23-.18.5-.32.8-.42s.63-.16.96-.16c.47,0,.92.1,1.37.31.44.21.84.49,1.18.86.35.36.62.79.83,1.28.21.49.31,1.02.31,1.6"/>
    <path id="path260" class="cls-3" d="M474.54,178.04c-.15.07-.32.13-.51.17-.19.04-.39.07-.59.07-.28,0-.55-.04-.82-.11-.26-.07-.49-.2-.68-.36-.2-.17-.35-.39-.47-.66-.11-.27-.17-.59-.17-.97v-9.11h1.95v8.77c0,.32.06.54.19.66.13.12.28.18.46.18.22,0,.43-.07.64-.2v1.57Z"/>
    <path id="path262" class="cls-3" d="M477.43,178.08h-1.94v-7.68h1.94v7.68ZM477.46,169.07h-1.99v-1.99h1.99v1.99Z"/>
    <path id="path266" class="cls-3" d="M484.38,176.04v-3.68c-.18-.14-.4-.26-.67-.34-.27-.08-.5-.13-.71-.13-.32,0-.61.06-.87.17-.26.11-.49.27-.69.48-.19.21-.35.46-.45.75-.11.29-.16.62-.16.98,0,.34.05.65.16.94.11.29.25.54.44.74.19.21.41.37.67.48.26.12.55.17.86.17.51,0,.98-.19,1.41-.57M486.27,181.42h-1.91v-3.72c-.25.2-.52.35-.82.44-.3.09-.61.14-.94.14-.54,0-1.03-.11-1.49-.32-.45-.22-.84-.51-1.17-.88-.33-.37-.58-.79-.76-1.28-.18-.49-.27-1-.27-1.54,0-.58.1-1.11.31-1.6.21-.49.49-.92.83-1.28.34-.36.74-.65,1.18-.86.44-.21.9-.31,1.37-.31.33,0,.65.04.96.13.31.09.58.21.8.37v-.32h1.91v11.02Z"/>
    <path id="path270" class="cls-3" d="M494.68,178.08h-1.91v-.58c-.12.12-.27.23-.43.33-.16.09-.34.17-.52.24-.18.07-.37.12-.56.15-.19.04-.37.05-.54.05-.39,0-.76-.06-1.12-.19-.36-.12-.68-.31-.95-.57-.27-.26-.49-.59-.66-1-.17-.41-.25-.89-.25-1.45v-4.66h1.91v4.57c0,.27.04.52.13.72.08.21.19.38.33.52.14.14.3.24.48.31.18.07.37.1.56.1.62,0,1.16-.21,1.61-.64v-5.57h1.91v7.67Z"/>
    <path id="path274" class="cls-3" d="M502.2,166.89l-1.91,2.56h-1.41l1.19-2.56h2.12ZM502.19,173.49c-.15-.49-.42-.88-.8-1.17-.38-.3-.82-.44-1.31-.44s-.91.15-1.29.44c-.38.3-.65.69-.8,1.17h4.19ZM504.19,174.24c0,.12,0,.25-.02.38-.01.13-.03.27-.05.41h-6.13c.07.22.17.43.3.63.13.2.29.37.47.52.19.15.4.26.63.35.23.08.49.13.78.13.35,0,.69-.06,1.03-.18.35-.12.63-.28.86-.48l1.21,1.21c-.53.4-1.05.68-1.56.84-.51.16-1.05.25-1.61.25s-1.11-.11-1.61-.32c-.5-.21-.93-.5-1.3-.86-.37-.36-.66-.79-.87-1.28-.21-.49-.32-1.02-.32-1.57s.11-1.08.32-1.57.51-.92.88-1.28c.37-.36.8-.65,1.3-.86.5-.21,1.03-.32,1.59-.32s1.06.1,1.55.3c.5.2.93.47,1.31.83.38.35.68.78.9,1.27.22.49.33,1.03.33,1.63"/>
    <path id="path278" class="cls-3" d="M511.01,175.93c0,.38-.09.72-.27,1.01-.18.3-.41.54-.69.74-.28.2-.6.35-.96.45-.36.1-.71.15-1.05.15-.59,0-1.12-.11-1.62-.32-.49-.22-.92-.56-1.3-1.04l1.15-1.17c.23.29.5.52.8.68.3.16.62.24.97.24.3,0,.55-.06.75-.17.2-.11.3-.28.3-.5s-.14-.42-.43-.58c-.28-.16-.68-.31-1.19-.46-.3-.09-.59-.2-.88-.34-.28-.14-.54-.31-.76-.5-.22-.2-.4-.43-.53-.68-.13-.26-.2-.55-.2-.89,0-.37.09-.71.26-1,.17-.3.4-.54.68-.74.28-.2.6-.35.95-.46.36-.11.71-.16,1.08-.16,1.17,0,2.13.44,2.87,1.33l-1.14,1.15c-.22-.28-.47-.49-.76-.65s-.59-.24-.93-.24c-.11,0-.24.01-.36.05-.13.03-.25.07-.36.13-.11.06-.2.13-.27.23-.07.09-.1.2-.1.31,0,.2.13.38.4.53.27.15.66.3,1.16.45.33.1.64.22.93.37.29.15.55.32.77.52.22.2.4.43.52.68.13.25.19.54.19.86"/>
  </g>
</svg>