<?xml version="1.0" encoding="UTF-8"?>
<svg id="Calque_1" data-name="Calque 1" xmlns="http://www.w3.org/2000/svg" viewBox="0 0 512.37 160.14">
  <defs>
    <style>
      .cls-1 {
        fill: #bf1c2d;
      }

      .cls-1, .cls-2 {
        stroke-width: 0px;
      }

      .cls-2 {
        fill: #576d79;
      }
    </style>
  </defs>
  <path id="path20" class="cls-2" d="M65.27,72.74c-1.59-5.14-4.41-9.27-8.47-12.4-4.06-3.13-8.66-4.69-13.8-4.69s-9.57,1.56-13.59,4.69c-4.02,3.13-6.82,7.26-8.4,12.4h44.26ZM86.42,80.59c0,1.31-.07,2.66-.21,4.06-.14,1.4-.3,2.85-.49,4.34H21.01c.75,2.34,1.8,4.55,3.15,6.65,1.35,2.1,3.01,3.92,4.97,5.46,1.96,1.54,4.18,2.75,6.65,3.64,2.47.89,5.2,1.33,8.19,1.33,3.64,0,7.28-.63,10.92-1.89,3.64-1.26,6.68-2.96,9.11-5.11l12.75,12.75c-5.6,4.2-11.09,7.17-16.46,8.89-5.37,1.73-11.04,2.59-17.02,2.59s-11.74-1.12-17.02-3.36c-5.28-2.24-9.85-5.27-13.73-9.1-3.88-3.83-6.93-8.33-9.17-13.52-2.24-5.18-3.36-10.72-3.36-16.6s1.12-11.41,3.36-16.6c2.24-5.18,5.32-9.69,9.24-13.52,3.92-3.83,8.5-6.86,13.73-9.1,5.23-2.24,10.83-3.36,16.81-3.36s11.16,1.05,16.39,3.15c5.23,2.1,9.85,5.02,13.87,8.75,4.01,3.74,7.19,8.19,9.52,13.38,2.33,5.18,3.5,10.9,3.5,17.16"/>
  <path id="path24" class="cls-2" d="M172.7,121.21h-20.17v-48.32c0-2.89-.45-5.44-1.34-7.63-.89-2.19-2.08-4.01-3.59-5.46-1.5-1.45-3.21-2.52-5.14-3.22-1.92-.7-3.91-1.05-5.98-1.05-3.09,0-6.14.54-9.14,1.61-3,1.07-5.72,2.78-8.16,5.11v58.97h-20.17V40.25h20.17l.14,6.02c1.21-1.21,2.71-2.33,4.48-3.36,1.77-1.03,3.62-1.89,5.53-2.59,1.91-.7,3.87-1.24,5.88-1.61,2.01-.37,3.94-.56,5.81-.56,4.11,0,8.05.65,11.84,1.96,3.78,1.31,7.14,3.32,10.08,6.02,2.94,2.71,5.3,6.21,7.07,10.51,1.77,4.3,2.66,9.38,2.66,15.27v49.3Z"/>
  <path id="path26" class="cls-2" d="M208.84,121.2h-20.45V40.1h20.45v81.1Z"/>
  <path id="path30" class="cls-2" d="M276.21,69.66c0-2.05-.39-3.97-1.18-5.74-.79-1.77-1.85-3.34-3.19-4.69-1.34-1.35-2.92-2.43-4.72-3.22-1.8-.79-3.72-1.19-5.76-1.19s-3.93.4-5.69,1.19c-1.76.79-3.31,1.87-4.65,3.22-1.34,1.35-2.41,2.92-3.19,4.69-.79,1.78-1.18,3.69-1.18,5.74s.39,3.99,1.18,5.81c.79,1.82,1.85,3.41,3.19,4.76,1.34,1.35,2.89,2.43,4.65,3.22,1.76.8,3.65,1.19,5.69,1.19s3.95-.4,5.76-1.19c1.8-.79,3.38-1.87,4.72-3.22,1.34-1.35,2.4-2.94,3.19-4.76.79-1.82,1.18-3.76,1.18-5.81M280,135.07c0-3.27-1.65-5.65-4.95-7.14-3.3-1.49-7.56-2.24-12.77-2.24-5.58,0-9.98.79-13.19,2.38-3.21,1.59-4.81,3.92-4.81,7s1.67,5.55,5.02,7.14c3.35,1.59,7.67,2.38,12.98,2.38s9.69-.77,12.9-2.31c3.21-1.54,4.82-3.95,4.82-7.21M301.71,56.21h-8.55c2.15,4.2,3.22,8.68,3.22,13.45,0,3.64-.68,7.17-2.03,10.58-1.36,3.41-3.29,6.51-5.81,9.31-2.52,2.8-5.58,5.18-9.18,7.14-3.59,1.96-7.63,3.27-12.12,3.92-3.08.47-5.39,1.19-6.93,2.17-1.54.98-2.31,1.96-2.31,2.94s.77,1.89,2.31,2.73c1.54.84,3.85,1.4,6.93,1.68,10.46.93,18.56,3.55,24.3,7.84,5.74,4.29,8.61,9.99,8.61,17.09,0,3.64-.88,7-2.65,10.08-1.77,3.08-4.3,5.74-7.61,7.99-3.3,2.24-7.28,3.97-11.93,5.18-4.65,1.21-9.86,1.82-15.63,1.82s-11.14-.61-15.84-1.82c-4.7-1.21-8.72-2.92-12.07-5.11-3.35-2.19-5.91-4.83-7.68-7.91-1.77-3.08-2.65-6.49-2.65-10.22,0-5.6,1.6-10.3,4.8-14.08,3.2-3.78,8.41-6.6,15.64-8.47-2.24-.84-3.85-1.98-4.83-3.43-.98-1.45-1.42-2.92-1.33-4.41.09-1.49.72-2.92,1.89-4.27,1.17-1.35,2.83-2.4,4.98-3.15-2.45-1.12-4.77-2.57-6.98-4.34-2.21-1.77-4.21-3.83-6-6.16-1.79-2.33-3.2-4.95-4.23-7.84-1.04-2.89-1.55-5.97-1.55-9.24,0-4.39.93-8.5,2.8-12.33,1.87-3.83,4.39-7.16,7.56-10.01,3.17-2.85,6.86-5.09,11.07-6.72,4.2-1.63,8.64-2.45,13.31-2.45s8.83.7,12.75,2.1h27.73v15.97Z"/>
  <path id="path34" class="cls-2" d="M431.41,121.21h-20.17v-48.32c0-5.7-1.38-10.01-4.13-12.96-2.75-2.94-6.14-4.41-10.15-4.41-3.08,0-6,.49-8.76,1.47-2.75.98-5.44,2.59-8.05,4.83.84,3.27,1.26,6.96,1.26,11.07v48.32h-20.17v-48.32c0-5.7-1.38-10.01-4.13-12.96-2.76-2.94-6.09-4.41-10.01-4.41-3.08,0-5.79.54-8.12,1.61-2.34,1.07-4.76,2.78-7.28,5.11v58.97h-20.17V40.25h20.17l.02,6.02c2.52-2.43,5.49-4.39,8.9-5.88,3.41-1.49,6.89-2.24,10.45-2.24,3.93,0,7.88.89,11.85,2.66,3.97,1.78,7.46,4.34,10.45,7.7,4.21-3.73,8.46-6.4,12.76-7.98,4.3-1.59,9.02-2.38,14.16-2.38,4.21,0,8.21.63,11.99,1.89,3.79,1.26,7.08,3.27,9.89,6.02,2.8,2.76,5.05,6.26,6.73,10.51,1.68,4.25,2.53,9.36,2.53,15.34v49.3Z"/>
  <path id="path38" class="cls-2" d="M492.2,101.03v-14.99h-9.24c-2.8,0-5.44.19-7.91.56-2.47.37-4.62,1.01-6.44,1.89-1.82.89-3.27,2.03-4.34,3.43-1.07,1.4-1.61,3.08-1.61,5.04,0,2.8,1.1,5.09,3.29,6.86,2.19,1.78,5.02,2.66,8.47,2.66,2.99,0,5.95-.47,8.89-1.4,2.94-.93,5.9-2.29,8.89-4.06M512.37,121.2h-20.17v-4.34c-3.55,2.43-7.31,4.11-11.28,5.04-3.97.93-8.05,1.4-12.26,1.4-3.92,0-7.47-.58-10.64-1.75-3.18-1.17-5.93-2.85-8.26-5.04-2.34-2.19-4.13-4.78-5.39-7.77-1.26-2.99-1.89-6.3-1.89-9.95,0-4.57,1-8.57,3.01-11.98,2.01-3.41,4.74-6.25,8.19-8.54,3.45-2.29,7.49-3.99,12.12-5.11,4.62-1.12,9.6-1.68,14.92-1.68h11.63c0-4.76-1.54-8.54-4.62-11.35-3.08-2.8-7.52-4.2-13.31-4.2-2.8,0-5.7.51-8.68,1.54-2.99,1.03-5.98,2.9-8.96,5.6l-11.91-12.05c4.29-4.11,9.27-7.28,14.92-9.52,5.65-2.24,11.46-3.36,17.44-3.36,5.6,0,10.59.89,14.97,2.66,4.37,1.78,7.9,4.06,10.59,6.86,3.52,3.55,6,7.52,7.44,11.91,1.44,4.39,2.15,9.99,2.15,16.81v44.82Z"/>
  <path id="path42" class="cls-1" d="M213.34,14.36c0,7.93-6.43,14.36-14.36,14.36s-14.36-6.43-14.36-14.36,6.43-14.36,14.36-14.36,14.36,6.43,14.36,14.36"/>
</svg>