<?xml version="1.0" encoding="UTF-8"?>
<svg id="carton" xmlns="http://www.w3.org/2000/svg" viewBox="0 0 566.64 441.56">
  <defs>
    <style>
      .cls-1 {
        fill: #b67a43;
      }

      .cls-1, .cls-2, .cls-3, .cls-4, .cls-5, .cls-6, .cls-7, .cls-8, .cls-9, .cls-10, .cls-11, .cls-12, .cls-13 {
        stroke-width: 0px;
      }

      .cls-2 {
        fill: #925827;
      }

      .cls-3 {
        fill: #d8a261;
      }

      .cls-4 {
        fill: #b7894f;
      }

      .cls-5 {
        fill: #be9257;
      }

      .cls-14 {
        fill: #1d1d1b;
        font-family: LEMONMILK-Medium, 'LEMON MILK';
        font-size: 64.51px;
        font-weight: 500;
      }

      .cls-6 {
        fill: #a46b37;
      }

      .cls-7 {
        fill: #533f29;
      }

      .cls-8 {
        fill: #c8874c;
      }

      .cls-9 {
        fill: #d2985a;
      }

      .cls-10 {
        fill: #a17747;
      }

      .cls-11 {
        fill: #7f603b;
      }

      .cls-12 {
        fill: #a47a4b;
      }

      .cls-13 {
        fill: #c8915a;
      }
    </style>
  </defs>
  <g>
    <path class="cls-13" d="M260.64,372.2c2.09-.03,4.18.01,6.28.1q.34.01.68.03t.67.03c.19,0,.39.02.59.02.62.04,1.24.09,1.85.15,1.18.11,2.36.18,3.54.23q.31.01.62.03c.64.03,1.29.06,1.93.09.44.02.88.04,1.32.06,1.07.05,2.14.1,3.21.14-.49,2.23-.99,4.46-1.58,6.67-.06.22-.12.44-.18.67-.14.53-.28,1.06-.42,1.59.13.02.27.04.41.06,2.3.36,4.56.88,6.83,1.38.42.09.84.18,1.25.28,1.02.22,2.03.45,3.05.68-.14.8-.36,1.49-.66,2.24-.09.22-.18.44-.27.67-.1.23-.19.47-.29.71-.78,1.93-1.54,3.87-2.24,5.84q-.43,1.19-.67,1.43c-1.75-.1-3.43-.64-5.12-1.1-.31-.08-.61-.17-.92-.25-.75-.2-1.49-.4-2.24-.61,0,.13,0,.26-.01.4-1,11.57-3.13,11.06-3.93,16.36-.77,1.12-1.13,2.31-1.77,3.52-.36.67-.89,1.24-1.25,1.9-.14.25-.43.37-.57.63-.91,1.63-1.53,3.46-2.48,5.07-1.76-.36-3.48-.86-5.2-1.36q-.23-.07-.46-.13c-1.88-.55-3.75-1.11-5.61-1.71-1.58-.51-3.17-.98-4.76-1.45-2.19-.66-4.39-1.32-6.57-1.99-.24-.07-.48-.15-.73-.22q-.33-.1-.67-.21c-.19-.06-.39-.12-.59-.18q-.47-.15-.9-.37-.1-.54-.17-1.27c-.03-.27-.05-.54-.08-.82-.03-.3-.05-.6-.08-.9-.03-.3-.06-.61-.09-.91-.06-.64-.12-1.28-.18-1.92-.07-.82-.15-1.64-.23-2.46-.07-.78-.15-1.56-.22-2.35q-.02-.22-.04-.45c-.04-.42-.08-.85-.12-1.27q-.03-.36-.07-.73c-.04-.58-.06-1.16-.05-1.74q-.25-.03-.51-.06c-1.86-.24-3.65-.62-5.47-1.07-1.34-.33-2.68-.62-4.05-.83.33-1.09.98-1.78,1.73-2.6,1.06-1.2,2.07-2.42,3.05-3.68.81-1.04,1.66-2.05,2.53-3.05.45-.52.75-.9.97-1.56q-.17-.05-.35-.09c-1.7-.48-3.32-1.13-4.96-1.8-.48-.2-.97-.39-1.45-.58-.31-.12-.61-.25-.92-.37-.14-.06-.29-.12-.44-.17q-1.01-.41-1.25-.9c3.31-1.07,6.65-1.95,10.03-2.78.33-.08.67-.16,1-.25.16-.04.32-.08.49-.12,2.03-.5,4.05-1.04,6.04-1.67,1.51-.38,2.54-.07,3.94.48q.27.1.54.21c.56.22,1.12.43,1.68.65.38.15.76.29,1.15.44.93.36,1.87.72,2.8,1.08q.04-.22.08-.45c.16-.73.39-1.41.63-2.11q.07-.21.14-.42c.1-.29.2-.58.3-.87.15-.44.31-.89.46-1.33q.75-2.16,1-2.67Z"/>
    <path class="cls-3" d="M251.72,377.61q.24.09.49.19c.52.2,1.03.4,1.54.61.35.14.7.27,1.05.41.86.33,1.71.67,2.57,1.01v.44c-5.36,1.84-10.73,3.66-16.12,5.44.82.29,1.6.51,2.46.64.22.03.44.07.67.1.24.03.47.07.71.1.25.04.5.07.75.11,1.54.23,3.09.45,4.63.67,2.61.37,5.21.78,7.8,1.24,2.08.36,4.17.69,6.26.98,1.47.21,2.92.45,4.38.73-.36,1.28-.98,2.41-1.61,3.58-.24.44-.47.89-.71,1.33-.12.23-.24.46-.37.69-.37.71-.74,1.43-1.1,2.14-.12.23-.23.46-.35.7-.23.44-.45.89-.67,1.33-.1.2-.21.4-.31.61q-.13.27-.27.54t-.93.62v1.09c-.97.3-1.8.08-2.77-.14-.19-.04-.38-.08-.57-.12-.62-.13-1.23-.26-1.85-.4-.43-.09-.85-.18-1.28-.27-2.76-.59-5.52-1.21-8.27-1.84-2.07-.47-4.15-.88-6.24-1.27-3.4-.64-6.78-1.35-10.16-2.07.33-1.09.98-1.78,1.73-2.6,1.06-1.2,2.07-2.42,3.05-3.68.81-1.04,1.66-2.05,2.53-3.05.45-.52.75-.9.97-1.56q-.17-.05-.35-.09c-1.7-.48-3.32-1.13-4.96-1.8-.48-.2-.97-.39-1.45-.58-.31-.12-.61-.25-.92-.37-.14-.06-.29-.12-.44-.17q-1.01-.41-1.25-.9c3.31-1.07,6.65-1.95,10.03-2.78.33-.08.67-.16,1-.25.16-.04.32-.08.49-.12,2.03-.5,4.05-1.04,6.04-1.67,1.43-.36,2.46-.11,3.8.43Z"/>
    <path class="cls-8" d="M258.03,380.26c.49.05.98.09,1.48.13.32.02.63.05.95.07.17.01.34.02.51.04,3.57.26,7.13.57,10.7.91.51.05,1.02.1,1.53.14.72.07,1.44.13,2.16.2.22.02.43.04.66.06.2.02.4.04.61.06.17.02.35.03.53.05.51.1.9.27,1.35.52-1.08.99-2.16,1.96-3.31,2.87-1.18.95-2.28,1.97-3.38,3.02-.26.25-.53.49-.79.73q-.41.38-.92,1.01c-1.27.72-2.55.27-3.93-.01-.31-.06-.61-.11-.92-.17-.61-.11-1.22-.22-1.83-.34-1.04-.19-2.09-.34-3.14-.48-1.77-.24-3.53-.55-5.3-.86-2.48-.44-4.97-.79-7.48-1.11-2.32-.3-4.62-.71-6.91-1.19.71-.47,1.33-.69,2.14-.95.15-.05.3-.1.46-.15.5-.16,1-.33,1.5-.49.71-.23,1.42-.47,2.13-.7.18-.06.37-.12.56-.18,1.35-.45,2.7-.91,4.05-1.38.19-.07.38-.13.57-.2q1.11-.39,2.23-.78c.51-.18,1.03-.36,1.54-.54.15-.05.31-.11.46-.17q1.06-.37,1.79-.12Z"/>
    <path class="cls-9" d="M260.64,372.2c2.09-.03,4.18.01,6.28.1q.34.01.68.03t.67.03.59.02c.62.04,1.24.09,1.85.15,1.18.11,2.36.18,3.54.23q.31.01.62.03c.64.03,1.29.06,1.93.09.44.02.88.04,1.32.06,1.07.05,2.14.1,3.21.14-.49,2.23-.98,4.45-1.57,6.66-.06.22-.11.44-.17.66-.05.21-.11.42-.16.63-.05.18-.1.37-.15.56q-.13.42-.35.64c-.54,0-1.07-.03-1.6-.07q-.25-.02-.5-.03c-1.74-.12-3.48-.29-5.22-.47-2.57-.26-5.14-.52-7.72-.71-.19-.01-.38-.03-.58-.04-.92-.07-1.85-.13-2.77-.2-.33-.02-.66-.05-.99-.07-.15,0-.3-.02-.46-.03-.35-.03-.71-.07-1.06-.13q-.22-.44,0-1.16c.11-.31.22-.62.33-.92.06-.16.12-.33.18-.49.19-.52.37-1.04.56-1.56.13-.35.25-.7.38-1.05q.91-2.56,1.18-3.08Z"/>
    <path class="cls-4" d="M284.33,382.95c.3.07.61.13.91.2,1.82.4,3.64.82,5.46,1.24-.14.8-.36,1.49-.66,2.24-.09.22-.18.44-.27.67-.1.23-.19.47-.29.71-.78,1.93-1.54,3.87-2.24,5.84q-.43,1.19-.67,1.43c-1.75-.1-3.43-.64-5.12-1.1-.31-.08-.61-.17-.92-.25-.75-.2-1.49-.4-2.24-.61-.07.22-.14.43-.22.65v-1.09c-.13-.02-.26-.05-.39-.07-1.46-.28-2.9-.63-4.34-1.02-.22-.06-.43-.11-.66-.17-1.11-.29-2.23-.6-3.33-.92q-.11.54-.22,1.09c-.22-.07-.43-.14-.65-.22.3-.95.67-1.35,1.46-1.95,1.05-.83,2.04-1.7,3.01-2.63,1.13-1.07,2.27-2.09,3.49-3.05.36-.29.71-.59,1.05-.9.16-.14.33-.29.49-.43.14-.13.28-.25.42-.38,1.65-.75,4.21.32,5.93.71Z"/>
    <path class="cls-5" d="M251.72,377.61q.24.09.49.19c.52.2,1.03.4,1.54.61.35.14.7.27,1.05.41.86.33,1.71.67,2.57,1.01v.44c-5.36,1.84-10.73,3.66-16.12,5.44.07.14.14.29.22.44-1.16.06-1.98-.11-3.06-.53-.14-.06-.28-.11-.43-.17-.45-.18-.9-.36-1.35-.54-.3-.12-.59-.23-.89-.35-.72-.28-1.43-.57-2.15-.86-.4-.16-.8-.32-1.2-.48-.24-.1-.47-.19-.72-.29-.21-.08-.42-.17-.63-.25q-.47-.23-.69-.67c3.31-1.07,6.65-1.95,10.03-2.78.33-.08.67-.16,1-.25.16-.04.32-.08.49-.12,2.03-.5,4.05-1.04,6.04-1.67,1.43-.36,2.46-.11,3.8.43Z"/>
    <path class="cls-2" d="M258.03,380.26q.17.38.27.84c.04.15.07.3.11.46q.05.44-.17,1.09c-.03.43-.05.87-.07,1.3,0,.25-.02.51-.03.77,0,.26-.02.53-.03.8q-.01.4-.03.81c-.02.66-.05,1.32-.07,1.98-.84.3-1.55.16-2.42.02q-.23-.03-.46-.07c-.49-.07-.98-.15-1.47-.23-.34-.05-.68-.1-1.02-.15-.51-.08-1.01-.15-1.52-.23-1.11-.17-2.21-.33-3.32-.48-2.43-.33-4.82-.78-7.22-1.26.71-.47,1.33-.69,2.14-.95.15-.05.3-.1.46-.15.5-.16,1-.33,1.5-.49.71-.23,1.42-.47,2.13-.7.18-.06.37-.12.56-.18,1.35-.45,2.7-.91,4.05-1.38.19-.07.38-.13.57-.2q1.11-.39,2.23-.78c.51-.18,1.03-.36,1.54-.54.15-.05.31-.11.46-.17q1.06-.37,1.79-.12Z"/>
    <path class="cls-10" d="M268.26,391.58q.22.65.02,1.16c-.11.2-.21.39-.32.59-.11.22-.23.43-.35.65-.12.23-.25.45-.37.68-.24.44-.47.89-.71,1.33-.11.21-.23.43-.35.65-.27.51-.53,1.02-.79,1.54-.37.76-.79,1.49-1.22,2.21-.13.23-.27.45-.4.69-.1.17-.2.34-.3.51l-.22-.44q.14-.39.39-.86c.09-.18.18-.35.27-.54.1-.19.2-.38.3-.58.1-.2.2-.39.31-.59.32-.63.65-1.26.98-1.88.22-.42.44-.85.65-1.27.21-.4.42-.81.62-1.21q.15-.29.3-.58t.28-.54c.08-.16.16-.31.25-.47q.23-.41.66-1.07Z"/>
    <path class="cls-6" d="M257.81,380.26c.43.64.56.99.65,1.74-.07.22-.14.43-.22.65-.03.43-.05.87-.07,1.3,0,.25-.02.51-.03.77,0,.26-.02.53-.03.8,0,.27-.02.53-.03.81-.02.66-.05,1.32-.07,1.98h-.22v-8.06Z"/>
    <path class="cls-1" d="M258.46,382c.57.85.59,1.38.65,2.4-.14.14-.29.29-.44.44-.07-.93-.14-1.87-.22-2.83Z"/>
    <path class="cls-12" d="M268.92,390.5c.22.07.43.14.65.22-.14.36-.29.72-.44,1.09-.22-.07-.43-.14-.65-.22.14-.36.29-.72.44-1.09Z"/>
    <g>
      <polygon class="cls-7" points="247.5 411.72 248.37 411.93 248.17 405.2 248.59 405.2 247.65 403.66 246.71 404.97 247.28 404.97 247.5 411.72"/>
      <g>
        <polygon class="cls-7" points="244.9 411.32 248.97 412.39 249.04 413.25 244.9 412.13 244.9 411.32"/>
        <polygon class="cls-7" points="245.54 411.28 246.38 411.28 245.97 404.74 246.42 404.74 245.44 403.21 244.68 404.51 245.11 404.54 245.54 411.28"/>
      </g>
    </g>
    <polygon class="cls-11" points="269.45 390.68 268.24 421.2 277.34 405.1 278.22 393.16 269.45 390.68"/>
  </g>
  <text class="cls-14" transform="translate(0 423.7)"><tspan x="0" y="0" xml:space="preserve">DEMEN   GEMENT</tspan></text>
</svg>